<svg width="176" height="48" viewBox="0 0 176 48" fill="none" xmlns="http://www.w3.org/2000/svg">
<path d="M30.68 18.08C30.68 20.32 30.14 22.42 29.06 24.38C28.02 26.34 26.36 27.92 24.08 29.12C21.84 30.32 19 30.92 15.56 30.92H8.54V47H0.14V5.12H15.56C18.8 5.12 21.56 5.68 23.84 6.8C26.12 7.92 27.82 9.46 28.94 11.42C30.1 13.38 30.68 15.6 30.68 18.08ZM15.2 24.14C17.52 24.14 19.24 23.62 20.36 22.58C21.48 21.5 22.04 20 22.04 18.08C22.04 14 19.76 11.96 15.2 11.96H8.54V24.14H15.2ZM51.4039 47.54C48.2039 47.54 45.3239 46.84 42.7639 45.44C40.2039 44 38.1839 41.98 36.7039 39.38C35.2639 36.78 34.5439 33.78 34.5439 30.38C34.5439 26.98 35.2839 23.98 36.7639 21.38C38.2839 18.78 40.3439 16.78 42.9439 15.38C45.5439 13.94 48.4439 13.22 51.6439 13.22C54.8439 13.22 57.7439 13.94 60.3439 15.38C62.9439 16.78 64.9839 18.78 66.4639 21.38C67.9839 23.98 68.7439 26.98 68.7439 30.38C68.7439 33.78 67.9639 36.78 66.4039 39.38C64.8839 41.98 62.8039 44 60.1639 45.44C57.5639 46.84 54.6439 47.54 51.4039 47.54ZM51.4039 40.22C52.9239 40.22 54.3439 39.86 55.6639 39.14C57.0239 38.38 58.1039 37.26 58.9039 35.78C59.7039 34.3 60.1039 32.5 60.1039 30.38C60.1039 27.22 59.2639 24.8 57.5839 23.12C55.9439 21.4 53.9239 20.54 51.5239 20.54C49.1239 20.54 47.1039 21.4 45.4639 23.12C43.8639 24.8 43.0639 27.22 43.0639 30.38C43.0639 33.54 43.8439 35.98 45.4039 37.7C47.0039 39.38 49.0039 40.22 51.4039 40.22ZM83.3056 18.92C84.3856 17.16 85.7856 15.78 87.5056 14.78C89.2656 13.78 91.2656 13.28 93.5056 13.28V22.1H91.2856C88.6456 22.1 86.6456 22.72 85.2856 23.96C83.9656 25.2 83.3056 27.36 83.3056 30.44V47H74.9056V13.76H83.3056V18.92ZM108.943 20.66V36.74C108.943 37.86 109.203 38.68 109.723 39.2C110.283 39.68 111.203 39.92 112.483 39.92H116.383V47H111.103C104.023 47 100.483 43.56 100.483 36.68V20.66H96.5234V13.76H100.483V5.54H108.943V13.76H116.383V20.66H108.943Z" fill="#2B2B2B"/>
<path d="M137.665 20.66H131.845V47H123.325V20.66H119.545V13.76H123.325V12.08C123.325 8 124.485 5 126.805 3.08C129.125 1.16 132.625 0.259999 137.305 0.379999V7.46C135.265 7.42 133.845 7.76 133.045 8.48C132.245 9.2 131.845 10.5 131.845 12.38V13.76H137.665V20.66ZM157.869 47.54C154.669 47.54 151.789 46.84 149.229 45.44C146.669 44 144.649 41.98 143.169 39.38C141.729 36.78 141.009 33.78 141.009 30.38C141.009 26.98 141.749 23.98 143.229 21.38C144.749 18.78 146.809 16.78 149.409 15.38C152.009 13.94 154.909 13.22 158.109 13.22C161.309 13.22 164.209 13.94 166.809 15.38C169.409 16.78 171.449 18.78 172.929 21.38C174.449 23.98 175.209 26.98 175.209 30.38C175.209 33.78 174.429 36.78 172.869 39.38C171.349 41.98 169.269 44 166.629 45.44C164.029 46.84 161.109 47.54 157.869 47.54ZM157.869 40.22C159.389 40.22 160.809 39.86 162.129 39.14C163.489 38.38 164.569 37.26 165.369 35.78C166.169 34.3 166.569 32.5 166.569 30.38C166.569 27.22 165.729 24.8 164.049 23.12C162.409 21.4 160.389 20.54 157.989 20.54C155.589 20.54 153.569 21.4 151.929 23.12C150.329 24.8 149.529 27.22 149.529 30.38C149.529 33.54 150.309 35.98 151.869 37.7C153.469 39.38 155.469 40.22 157.869 40.22Z" fill="white"/>
</svg>
